<?xml version="1.0" encoding="UTF-8"?>
<svg xmlns="http://www.w3.org/2000/svg" width="83" height="83" viewBox="0 0 83 83">
  <g id="E-Learning-Monitor--Streamline-Streamline--3.0" transform="translate(0.781 0.78)">
    <path id="Pfad_2796" data-name="Pfad 2796" d="M6.052.72H75.385s5.333,0,5.333,5.333V59.386s0,5.333-5.333,5.333H6.052s-5.333,0-5.333-5.333V6.053S.719.72,6.052.72" transform="translate(0 0)" fill="none" stroke="#3a80f6" stroke-linecap="round" stroke-linejoin="round" stroke-width="3"></path>
    <path id="Pfad_2797" data-name="Pfad 2797" d="M34.573,33.97H7.906l2.667-16H31.906Z" transform="translate(19.479 46.75)" fill="none" stroke="#3a80f6" stroke-linecap="round" stroke-linejoin="round" stroke-width="3"></path>
    <path id="Pfad_2798" data-name="Pfad 2798" d="M5.75,22.282H48.417" transform="translate(13.635 58.438)" fill="none" stroke="#3a80f6" stroke-linecap="round" stroke-linejoin="round" stroke-width="3"></path>
    <path id="Pfad_2799" data-name="Pfad 2799" d="M17.969,7.188v8" transform="translate(46.75 17.531)" fill="none" stroke="#3a80f6" stroke-linecap="round" stroke-linejoin="round" stroke-width="3"></path>
    <path id="Pfad_2800" data-name="Pfad 2800" d="M34.573,8.467V22.39a20.21,20.21,0,0,1-13.308,5.333A20.427,20.427,0,0,1,7.906,22.39V8.467" transform="translate(19.479 20.996)" fill="none" stroke="#3a80f6" stroke-linecap="round" stroke-linejoin="round" stroke-width="3"></path>
    <path id="Pfad_2801" data-name="Pfad 2801" d="M5.031,14.98l24,10.667,24-10.667-24-10.667Z" transform="translate(11.687 9.74)" fill="none" stroke="#3a80f6" stroke-linecap="round" stroke-linejoin="round" stroke-width="3"></path>
  </g>
</svg>
