<?xml version="1.0" encoding="UTF-8"?>
<svg xmlns="http://www.w3.org/2000/svg" width="83" height="49.933" viewBox="0 0 83 49.933">
  <g id="Business-Deal-Handshake--Streamline-Streamline--3.0.svg" transform="translate(1.5 1.5)">
    <g id="Gruppe_27" data-name="Gruppe 27" transform="translate(0 3.485)">
      <path id="Pfad_2709" data-name="Pfad 2709" d="M34.448,14.19,14.75,18.1" transform="translate(35.028 13.579)" fill="none" stroke="#3a80f6" stroke-linecap="round" stroke-linejoin="round" stroke-width="3"></path>
      <path id="Pfad_2710" data-name="Pfad 2710" d="M3.68,25.981h8.711L24.871,39.99a5.013,5.013,0,0,0,3.556,1.636A164.2,164.2,0,0,0,48.836,24.239c.391-1.1-.356-2.2-1.031-3.129L38.88,9.59" transform="translate(6.738 1.823)" fill="none" stroke="#3a80f6" stroke-linecap="round" stroke-linejoin="round" stroke-width="3"></path>
      <path id="Pfad_2711" data-name="Pfad 2711" d="M28.034,8.869,26.79,7.8A7.68,7.68,0,0,0,22.417,6.38a7.4,7.4,0,0,0-2.773.533L3.75,13.242" transform="translate(6.917 -6.38)" fill="none" stroke="#3a80f6" stroke-linecap="round" stroke-linejoin="round" stroke-width="3"></path>
      <path id="Pfad_2712" data-name="Pfad 2712" d="M.75,6.6H7.861a3.556,3.556,0,0,1,3.556,3.271V32.7a3.556,3.556,0,0,1-3.556,3.236H.75" transform="translate(-0.75 -5.818)" fill="none" stroke="#3a80f6" stroke-linecap="round" stroke-linejoin="round" stroke-width="3"></path>
      <path id="Pfad_2713" data-name="Pfad 2713" d="M30.917,35.933H23.806A3.556,3.556,0,0,1,20.25,32.7V9.871A3.556,3.556,0,0,1,23.806,6.6h7.111" transform="translate(49.083 -5.818)" fill="none" stroke="#3a80f6" stroke-linecap="round" stroke-linejoin="round" stroke-width="3"></path>
    </g>
    <path id="Pfad_2714" data-name="Pfad 2714" d="M29.066,18.911,16.8,22.965a5.724,5.724,0,0,1-7.111-3.058A5.8,5.8,0,0,1,12.32,12.3L24.266,6.289A8.178,8.178,0,0,1,28.035,5.4a8.711,8.711,0,0,1,2.844.5l17.778,6.471" transform="translate(20.711 -5.4)" fill="none" stroke="#3a80f6" stroke-linecap="round" stroke-linejoin="round" stroke-width="3"></path>
  </g>
</svg>
